<svg xmlns="http://www.w3.org/2000/svg" width="24" height="24" viewBox="0 0 24 24">
  <g id="Group_2277" data-name="Group 2277" transform="translate(0)">
    <path id="Path_3721" data-name="Path 3721" d="M113.027,237.8l-.612-1.622L111.8,237.8Z" transform="translate(-106.555 -225.103)" fill="#989898"/>
    <path id="Path_3722" data-name="Path 3722" d="M395.693,213.2h1.762v1.4h-1.762v1.275h2.413a9.162,9.162,0,0,0-.036-3.95h-2.377Z" transform="translate(-377.121 -201.982)" fill="#989898"/>
    <path id="Path_3723" data-name="Path 3723" d="M22.594,12A10.594,10.594,0,0,1,4.509,19.491,10.594,10.594,0,1,1,20.163,5.245H18.2A9.169,9.169,0,0,0,3.123,14.307L5.265,8.685h1.2l2.508,6.645h-1.5l-.462-1.223H4.7l-.466,1.223H3.455a9.1,9.1,0,0,0,.428.935h0a9.169,9.169,0,0,0,16.67-.956H17.142V8.528h3.345a9.168,9.168,0,0,0-1.043-1.877h3V1.8H21.034V4.1A11.974,11.974,0,0,0,12,0,12,12,0,0,0,3.515,20.485,12,12,0,0,0,24,12Zm-6.848-.057A3.1,3.1,0,0,1,12.7,15.358a3.415,3.415,0,1,1,1.91-6.246l.583.394-.787,1.165-.583-.394A2.009,2.009,0,1,0,12.7,13.951a1.554,1.554,0,0,0,1.552-1.306H12.717V11.239h3.029Z" transform="translate(0 0)" fill="#989898"/>
  </g>
</svg>
