<svg xmlns="http://www.w3.org/2000/svg" width="21.283" height="26.106" viewBox="0 0 21.283 26.106">
  <g id="Group_1472" data-name="Group 1472" transform="translate(-2.104)">
    <g id="Group_1471" data-name="Group 1471" transform="translate(2.104)">
      <path id="Path_3448" data-name="Path 3448" d="M16.417,0H16.6A5.59,5.59,0,0,1,15.2,4.213a4.364,4.364,0,0,1-3.841,1.8,5.422,5.422,0,0,1,1.433-4.082A6.189,6.189,0,0,1,16.417,0Z" transform="translate(-0.752)" fill="#131313"/>
      <path id="Path_3449" data-name="Path 3449" d="M23.387,18.359v.052a15.189,15.189,0,0,1-2.173,4.19c-.829,1.141-1.844,2.676-3.658,2.676-1.567,0-2.608-1.008-4.214-1.035-1.7-.028-2.633.843-4.186,1.062h-.53A4.73,4.73,0,0,1,5.894,23.42,16.491,16.491,0,0,1,2.1,13.933V12.764a7.651,7.651,0,0,1,3.34-6.28,5.641,5.641,0,0,1,3.788-.877,9.528,9.528,0,0,1,1.856.532,5.125,5.125,0,0,0,1.855.556,4.452,4.452,0,0,0,1.3-.4,8.006,8.006,0,0,1,4.186-.743A5.808,5.808,0,0,1,22.7,8.1a5.477,5.477,0,0,0-2.782,5.434A5.609,5.609,0,0,0,23.387,18.359Z" transform="translate(-2.104 0.804)" fill="#131313"/>
    </g>
  </g>
</svg>
