<svg xmlns="http://www.w3.org/2000/svg" xmlns:xlink="http://www.w3.org/1999/xlink" width="60" height="60" viewBox="0 0 60 60">
  <defs>
    <linearGradient id="linear-gradient" x1="0.083" y1="0.1" x2="0.883" y2="0.817" gradientUnits="objectBoundingBox">
      <stop offset="0" stop-color="#fff" stop-opacity="0.4"/>
      <stop offset="1" stop-color="#8000ff" stop-opacity="0.2"/>
    </linearGradient>
  </defs>
  <g id="Group_2386" data-name="Group 2386" transform="translate(-30 -334)">
    <rect id="Rectangle_901" data-name="Rectangle 901" width="60" height="60" rx="30" transform="translate(30 334)" fill="url(#linear-gradient)"/>
    <path id="calendar-clock" d="M28.281,16.7a11.613,11.613,0,1,0,11.645,11.58A11.659,11.659,0,0,0,28.281,16.7Zm0,19.9A8.286,8.286,0,1,1,36.6,28.281,8.3,8.3,0,0,1,28.281,36.6Zm2.84-7.83a1.663,1.663,0,1,1-2.352,2.352L27.1,29.457a1.662,1.662,0,0,1-.487-1.176V24.954a1.664,1.664,0,1,1,3.327,0v2.638Zm8.805-17.123v3.327a1.664,1.664,0,1,1-3.327,0V11.645a5,5,0,0,0-4.991-4.991H8.318a5,5,0,0,0-4.991,4.991v1.664H18.3a1.664,1.664,0,0,1,0,3.327H3.327V31.608A5,5,0,0,0,8.318,36.6h6.654a1.664,1.664,0,1,1,0,3.327H8.318A8.327,8.327,0,0,1,0,31.608V11.645A8.327,8.327,0,0,1,8.318,3.327H9.981V1.664a1.664,1.664,0,1,1,3.327,0V3.327H26.617V1.664a1.664,1.664,0,0,1,3.327,0V3.327h1.664a8.327,8.327,0,0,1,8.318,8.318Z" transform="translate(40 344)" fill="#fff"/>
  </g>
</svg>
