<svg xmlns="http://www.w3.org/2000/svg" width="59.752" height="59.749" viewBox="0 0 59.752 59.749">
  <g id="Group_2307" data-name="Group 2307" transform="translate(0 -0.36)">
    <path id="Path_3787" data-name="Path 3787" d="M58.221,48.72,11.393,1.892A5.226,5.226,0,0,0,4,1.892L1.532,4.356a5.226,5.226,0,0,0,0,7.393L48.36,58.577a5.226,5.226,0,0,0,7.393,0l2.464-2.464a5.222,5.222,0,0,0,0-7.393Zm0,0" transform="translate(0)" fill="#d9000d"/>
    <path id="Path_3788" data-name="Path 3788" d="M48.36,1.893,1.532,48.721a5.226,5.226,0,0,0,0,7.393L4,58.578a5.226,5.226,0,0,0,7.393,0L58.22,11.754a5.224,5.224,0,0,0,0-7.392L55.756,1.9a5.227,5.227,0,0,0-7.4,0Zm0,0" transform="translate(0 -0.002)" fill="#d9000d"/>
  </g>
</svg>
