<svg xmlns="http://www.w3.org/2000/svg" width="18.134" height="18.134" viewBox="0 0 18.134 18.134">
  <g id="Group_1931" data-name="Group 1931" transform="translate(-10.008 0)">
    <path id="Path_3680" data-name="Path 3680" d="M183.493,63.585a.824.824,0,0,0-.2.322l-1.166,3.5a.824.824,0,0,0,1.043,1.043l3.5-1.166a.824.824,0,0,0,.322-.2l10.3-10.3-3.5-3.5Z" transform="translate(-172.077 -50.356)"/>
    <path id="Path_3681" data-name="Path 3681" d="M419.593.4a1.374,1.374,0,0,0-1.943,0l-1.36,1.36,3.5,3.5,1.36-1.36a1.374,1.374,0,0,0,0-1.943Z" transform="translate(-393.408 0)"/>
  </g>
</svg>
