<svg xmlns="http://www.w3.org/2000/svg" width="25.597" height="23.997" viewBox="0 0 25.597 23.997">
  <g id="Group_2279" data-name="Group 2279" transform="translate(0 -16)">
    <path id="Path_3725" data-name="Path 3725" d="M1.5,17.5V19H.75a.75.75,0,0,0,0,1.5H11.3a.75.75,0,1,0,0-1.5h-.75V17.5a1.5,1.5,0,0,0-1.5-1.5h-6A1.545,1.545,0,0,0,1.5,17.5Z" transform="translate(0 0)" fill="#989898"/>
    <path id="Path_3726" data-name="Path 3726" d="M.75,298.9H11.3a.749.749,0,0,0,.75-.75V292.9a4.5,4.5,0,0,0-3.482-4.373,3,3,0,0,1-5.036,0A4.544,4.544,0,0,0,0,292.9v5.249a.749.749,0,0,0,.75.75Zm5.3-6.749a.75.75,0,1,1-.75.75A.75.75,0,0,1,6.049,292.148Zm0,3a.75.75,0,1,1-.75.75A.75.75,0,0,1,6.049,295.148Z" transform="translate(0 -258.9)" fill="#989898"/>
    <path id="Path_3727" data-name="Path 3727" d="M34.549,143.5a1.5,1.5,0,0,0,1.5-1.5v-.257a4.505,4.505,0,0,0,3-4.242V136H30v1.245a4.868,4.868,0,0,0,3.05,4.486V142A1.5,1.5,0,0,0,34.549,143.5Z" transform="translate(-28.5 -114.001)" fill="#989898"/>
    <path id="Path_3728" data-name="Path 3728" d="M279.517,348.525a3,3,0,0,1-5.036,0A4.5,4.5,0,0,0,271,352.9v2.25a.749.749,0,0,0,.75.75H282.3a.749.749,0,0,0,.75-.75V352.9A4.545,4.545,0,0,0,279.517,348.525ZM277,353.648a.75.75,0,1,1,.75-.75A.75.75,0,0,1,277,353.648Z" transform="translate(-257.451 -315.901)" fill="#989898"/>
    <path id="Path_3729" data-name="Path 3729" d="M338.738,48.282a2.988,2.988,0,0,0-5.806,0,5.78,5.78,0,0,1,5.806,0Z" transform="translate(-316.287 -28.5)" fill="#989898"/>
    <path id="Path_3730" data-name="Path 3730" d="M302.516,109.75h3.92a2.585,2.585,0,0,0,2.5-3.263A4.444,4.444,0,0,0,306.94,106,4.5,4.5,0,0,0,302.516,109.75Z" transform="translate(-287.392 -85.5)" fill="#989898"/>
    <path id="Path_3731" data-name="Path 3731" d="M305.5,151.169a1.5,1.5,0,0,0,1.5-1.5v-.257a4.505,4.505,0,0,0,3-4.242v-1.5a4.455,4.455,0,0,0-.967-2.754,4.065,4.065,0,0,1-4.036,3.5h-4v.5a4.823,4.823,0,0,0,3,4.486v.269A1.5,1.5,0,0,0,305.5,151.169Z" transform="translate(-285.952 -118.671)" fill="#989898"/>
  </g>
</svg>
