<svg id="Facebook-f_Logo-Blue-Logo.wine" xmlns="http://www.w3.org/2000/svg" width="24" height="24" viewBox="0 0 24 24">
  <path id="Path_3848" data-name="Path 3848" d="M24,12A12,12,0,1,0,10.125,23.854V15.469H7.078V12h3.047V9.356c0-3.008,1.792-4.669,4.533-4.669a18.454,18.454,0,0,1,2.686.234V7.875H15.831a1.734,1.734,0,0,0-1.956,1.874V12H17.2l-.532,3.469h-2.8v8.385A12,12,0,0,0,24,12" fill="#1877f2"/>
  <path id="Path_3849" data-name="Path 3849" d="M412.258,277.446l.532-3.468h-3.327v-2.25a1.734,1.734,0,0,1,1.955-1.874h1.513V266.9a18.45,18.45,0,0,0-2.686-.234c-2.74,0-4.531,1.661-4.531,4.668v2.643h-3.046v3.468h3.046v8.383a12.13,12.13,0,0,0,3.749,0v-8.383h2.8" transform="translate(-395.588 -261.975)" fill="#fff"/>
</svg>
