<svg xmlns="http://www.w3.org/2000/svg" width="24" height="24" viewBox="0 0 24 24">
  <g id="image-" transform="translate(-2 -1)">
    <path id="Path_3718" data-name="Path 3718" d="M21.68,1H18.32A2.133,2.133,0,0,0,16,3.32V6.68A2.133,2.133,0,0,0,18.32,9h3.36A2.133,2.133,0,0,0,24,6.68V3.32A2.133,2.133,0,0,0,21.68,1Zm.251,3.783a.717.717,0,0,1-1.006,0l-.206-.206v2.56a.72.72,0,1,1-1.44,0V4.577l-.206.206a.711.711,0,0,1-1.006-1.006L19.5,2.349a.7.7,0,0,1,.217-.137c.023-.011.046-.011.069-.023a.474.474,0,0,1,.183-.034h.069a.545.545,0,0,1,.229.046h.023a.649.649,0,0,1,.206.137c.011.011.011.011.023.011l1.429,1.429a.707.707,0,0,1-.011,1.006Z" transform="translate(2 0)" fill="#989898"/>
    <path id="Path_3719" data-name="Path 3719" d="M9.34,11.06A2.72,2.72,0,1,0,6.62,8.34,2.72,2.72,0,0,0,9.34,11.06Z" transform="translate(0.66 0.66)" fill="#989898"/>
    <path id="Path_3720" data-name="Path 3720" d="M23.68,8.857h-.537v5.269L22.994,14a2.548,2.548,0,0,0-3.223,0l-4.754,4.08a2.548,2.548,0,0,1-3.223,0l-.389-.32a2.538,2.538,0,0,0-3.017-.16L4.114,20.469a6.1,6.1,0,0,1-.4-2.251V8.64c0-3.223,1.7-4.926,4.926-4.926H18V3.177A2.388,2.388,0,0,1,18.263,2H8.64C4.48,2,2,4.48,2,8.64v9.577a7.683,7.683,0,0,0,.64,3.246c.983,2.171,3.086,3.394,6,3.394h9.577c4.16,0,6.64-2.48,6.64-6.64V8.594a2.388,2.388,0,0,1-1.177.263Z" transform="translate(0 0.143)" fill="#989898"/>
  </g>
</svg>
