<svg xmlns="http://www.w3.org/2000/svg" xmlns:xlink="http://www.w3.org/1999/xlink" width="120.002" height="120" viewBox="0 0 120.002 120">
  <defs>
    <linearGradient id="linear-gradient" x1="-0.055" y1="0.959" x2="1.04" y2="0.025" gradientUnits="objectBoundingBox">
      <stop offset="0" stop-color="#55db58"/>
      <stop offset="1" stop-color="#0ea012"/>
    </linearGradient>
  </defs>
  <g id="Group_1814" data-name="Group 1814" transform="translate(-136 -241)">
    <path id="Path_3663" data-name="Path 3663" d="M116.374,30.436C113.224,18.841,101.166,6.78,89.569,3.63A119.551,119.551,0,0,0,60,0,119.54,119.54,0,0,0,30.436,3.63C18.841,6.78,6.78,18.839,3.63,30.436A119.524,119.524,0,0,0,0,60,119.451,119.451,0,0,0,3.628,89.566c3.15,11.6,15.211,23.655,26.805,26.805A119.483,119.483,0,0,0,60,120a119.467,119.467,0,0,0,29.566-3.628c11.6-3.15,23.655-15.209,26.805-26.805A119.577,119.577,0,0,0,120,60,119.446,119.446,0,0,0,116.374,30.436Z" transform="translate(136 241)" fill="#e5f4d9"/>
    <g id="Layer_2_00000066502389475575604210000005872011211012940711_" transform="translate(124.1 260.604)">
      <g id="Layer_1_copy">
        <g id="_49" transform="translate(37.9 0.396)">
          <path id="Path_3669" data-name="Path 3669" d="M105.565,5.437V38.626a2.755,2.755,0,0,1-1.38,2.388C96.554,45.45,87.3,49.885,77.7,49.885a28.431,28.431,0,0,1-13.446-3.319c-1.008-.527-2-1.117-2.962-1.675-2.652-1.566-5.164-3.024-7.739-3.365a17.068,17.068,0,0,0-10.112,1.83V76.979a2.769,2.769,0,0,1-5.537,0V3.1a2.761,2.761,0,0,1,5.521,0V4.1A22.835,22.835,0,0,1,54.262,2.847c3.691.481,6.948,2.388,9.817,4.079.946.558,1.846,1.086,2.745,1.551,11.647,6.126,24.023.682,34.585-5.444a2.783,2.783,0,0,1,3.784,1.008,2.727,2.727,0,0,1,.372,1.4Z" transform="translate(-37.9 -0.396)" fill="url(#linear-gradient)"/>
        </g>
      </g>
    </g>
  </g>
</svg>
