<svg xmlns="http://www.w3.org/2000/svg" width="23.997" height="24" viewBox="0 0 23.997 24">
  <path id="Path_3715" data-name="Path 3715" d="M23.352,10.438l0,0L13.561.647a2.209,2.209,0,0,0-3.125,0L.651,10.431l-.01.01a2.208,2.208,0,0,0,1.47,3.764q.034,0,.068,0h.39v7.2A2.589,2.589,0,0,0,5.156,24h3.83a.7.7,0,0,0,.7-.7V17.647a1.181,1.181,0,0,1,1.18-1.18h2.259a1.181,1.181,0,0,1,1.18,1.18V23.3a.7.7,0,0,0,.7.7h3.83a2.589,2.589,0,0,0,2.586-2.586v-7.2h.362a2.21,2.21,0,0,0,1.564-3.771Zm0,0" transform="translate(0 0.001)" fill="#d9000d"/>
</svg>
