<svg xmlns="http://www.w3.org/2000/svg" width="26" height="26" viewBox="0 0 26 26">
  <g id="instagram" transform="translate(-2 -2)">
    <path id="Path_3711" data-name="Path 3711" d="M21.5,2H8.5A6.5,6.5,0,0,0,2,8.5v13A6.5,6.5,0,0,0,8.5,28h13A6.5,6.5,0,0,0,28,21.5V8.5A6.5,6.5,0,0,0,21.5,2ZM15,21.5A6.5,6.5,0,1,1,21.5,15,6.5,6.5,0,0,1,15,21.5ZM21.955,9.306a1.3,1.3,0,1,1,1.3-1.3A1.3,1.3,0,0,1,21.955,9.306Z" fill="#989898"/>
    <circle id="Ellipse_81" data-name="Ellipse 81" cx="4" cy="4" r="4" transform="translate(11.06 10.94)" fill="#989898"/>
  </g>
</svg>
