<svg id="Layer_7" xmlns="http://www.w3.org/2000/svg" width="26" height="26" viewBox="0 0 26 26">
  <g id="Group_2401" data-name="Group 2401">
    <path id="Path_3850" data-name="Path 3850" d="M13,0A13,13,0,1,0,26,13,13,13,0,0,0,13,0Z" fill="#999"/>
  </g>
  <path id="Path_3851" data-name="Path 3851" d="M21.182,19.968V14.981c0-2.671-1.426-3.915-3.328-3.915a2.867,2.867,0,0,0-2.6,1.436V11.27H12.358c.038.817,0,8.7,0,8.7h2.891V15.11a1.976,1.976,0,0,1,.1-.7,1.582,1.582,0,0,1,1.483-1.057c1.047,0,1.465.8,1.465,1.966v4.653ZM9.312,10.083a1.507,1.507,0,1,0,.019-3.005,1.507,1.507,0,1,0-.037,3.005Zm1.445,9.884v-8.7H7.867v8.7Z" transform="translate(-1.443 -1.327)" fill="#fff"/>
</svg>
