<svg xmlns="http://www.w3.org/2000/svg" xmlns:xlink="http://www.w3.org/1999/xlink" width="24" height="24" viewBox="0 0 24 24">
  <defs>
    <linearGradient id="linear-gradient" x1="-1.971" y1="2.61" x2="-1.264" y2="3.317" gradientUnits="objectBoundingBox">
      <stop offset="0" stop-color="#2489be"/>
      <stop offset="1" stop-color="#0575b3"/>
    </linearGradient>
  </defs>
  <g id="Group_2398" data-name="Group 2398" transform="translate(862 -960)">
    <g id="Group_2397" data-name="Group 2397" transform="translate(0 0)">
      <circle id="Ellipse_84" data-name="Ellipse 84" cx="6" cy="6" r="6" transform="translate(-860 962)" fill="#fff"/>
      <circle id="Ellipse_85" data-name="Ellipse 85" cx="9" cy="9" r="9" transform="translate(-858 964)" fill="#fff"/>
    </g>
    <path id="linkedin-icon" d="M19.025,7.025a12,12,0,1,0,12,12A12,12,0,0,0,19.025,7.025Zm-3.2,17.8H13.189V16.314h2.635ZM14.493,15.2a1.571,1.571,0,1,1,1.558-1.571A1.564,1.564,0,0,1,14.493,15.2Zm11.2,9.627H23.075V20.358c0-1.225-.465-1.91-1.435-1.91-1.055,0-1.606.712-1.606,1.91v4.468H17.508V16.314h2.527v1.146A2.969,2.969,0,0,1,22.6,16.055c1.8,0,3.1,1.1,3.1,3.382Z" transform="translate(-869.025 952.975)" fill="url(#linear-gradient)"/>
  </g>
</svg>
