<svg id="Group_2298" data-name="Group 2298" xmlns="http://www.w3.org/2000/svg" xmlns:xlink="http://www.w3.org/1999/xlink" width="141.296" height="127.734" viewBox="0 0 141.296 127.734">
  <defs>
    <clipPath id="clip-path">
      <rect id="Rectangle_904" data-name="Rectangle 904" width="141.296" height="127.734" fill="none"/>
    </clipPath>
    <linearGradient id="linear-gradient" x1="0.5" x2="0.5" y2="1" gradientUnits="objectBoundingBox">
      <stop offset="0" stop-color="#ffe5e6"/>
      <stop offset="1" stop-color="#ddebf8"/>
    </linearGradient>
  </defs>
  <g id="Group_2291" data-name="Group 2291">
    <g id="Group_2290" data-name="Group 2290" clip-path="url(#clip-path)">
      <path id="Path_3732" data-name="Path 3732" d="M162.338,0h-9.6a26.1,26.1,0,0,0-26.076,26.076V78.994h61.751V26.076A26.105,26.105,0,0,0,162.338,0m-9.6,12.945h9.6a13.147,13.147,0,0,1,13.133,13.131V66.05H139.608V26.076a13.147,13.147,0,0,1,13.133-13.131" transform="translate(-86.893 0)" fill="#d0e5f7"/>
    </g>
  </g>
  <g id="Group_2293" data-name="Group 2293">
    <g id="Group_2292" data-name="Group 2292" clip-path="url(#clip-path)">
      <path id="Path_3733" data-name="Path 3733" d="M209.311,54.463a13.147,13.147,0,0,0-13.133-13.131h-9.6a13.092,13.092,0,0,0-10.587,5.431,8.991,8.991,0,0,1,2.125-2.44l-.111.169a13.022,13.022,0,0,1,8.534-3.266h9.636a13.13,13.13,0,0,1,13.133,13.131Z" transform="translate(-120.734 -28.281)" fill="#fff"/>
    </g>
  </g>
  <g id="Group_2295" data-name="Group 2295">
    <g id="Group_2294" data-name="Group 2294" clip-path="url(#clip-path)">
      <path id="Path_3734" data-name="Path 3734" d="M188.747,41.226h0Zm-.019,0h0m-9.547,4.165a13.318,13.318,0,0,1,1.365-1.415q-.123.171-.241.347a13.276,13.276,0,0,0-1.124,1.068M211.5,76.284h0V54.357a13.058,13.058,0,0,0-.923-4.835,13.058,13.058,0,0,1,.923,4.835V76.284" transform="translate(-122.92 -28.281)" fill="#f1f8fd"/>
      <path id="Path_3735" data-name="Path 3735" d="M208.913,0h0m-.027,0h0m-.031,0h0m-.029,0h0M208.8,0h0m-.032,0h0m-.028,0h0m-.059,0h0m-.027,0h0m-.03,0h0M208.6,0h0m36.025,48.911h0V26.076A26.1,26.1,0,0,0,231.4,3.393a26.1,26.1,0,0,1,13.223,22.682V48.914" transform="translate(-143.1)" fill="#fff"/>
      <path id="Path_3736" data-name="Path 3736" d="M195.133,48.913c-.227-.086-.456-.167-.688-.242V27.241A26.106,26.106,0,0,0,168.367,1.165h-9.6a25.934,25.934,0,0,0-18.721,7.98q.577-.885,1.222-1.719a26.3,26.3,0,0,0-4.81,6.385l0,.006A26.094,26.094,0,0,1,159.108,0h9.947a26.089,26.089,0,0,1,26.078,26.076Z" transform="translate(-93.611)" fill="#edf5fc"/>
    </g>
  </g>
  <g id="Group_2297" data-name="Group 2297">
    <g id="Group_2296" data-name="Group 2296" clip-path="url(#clip-path)">
      <path id="Path_3737" data-name="Path 3737" d="M216.915,70.267h-1.959V47.758a13.147,13.147,0,0,0-13.133-13.131h-9.6a13,13,0,0,0-8.7,3.333,13.1,13.1,0,0,1,10.658-5.5h9.6a13.147,13.147,0,0,1,13.133,13.131Z" transform="translate(-125.901 -22.264)" fill="#b7d5f0"/>
      <path id="Path_3738" data-name="Path 3738" d="M190.946,41.225h0m-8.539,3.265.111-.169a13.075,13.075,0,0,1,8.423-3.1,13.022,13.022,0,0,0-8.534,3.265m30.381,5.03a13.156,13.156,0,0,0-12.211-8.3h0a13.156,13.156,0,0,1,12.21,8.3" transform="translate(-125.133 -28.281)" fill="#e0eefa"/>
      <path id="Path_3739" data-name="Path 3739" d="M214.43,75.012h-.476V53.084a13.13,13.13,0,0,0-13.133-13.131h-9.637a13.074,13.074,0,0,0-8.423,3.1q.118-.175.241-.347a13,13,0,0,1,8.7-3.333h9.6A13.147,13.147,0,0,1,214.43,52.5Z" transform="translate(-125.376 -27.009)" fill="#d2e5f6"/>
      <path id="Path_3740" data-name="Path 3740" d="M126.667,82.158h0Zm0,.022v0m0,.022v0m0,.022v0m0,.022v0m0,.021v0m0,.022c0-.005,0-.009,0-.013s0,.009,0,.013m0,.021v0m0,.021v0m0,.021v0m0,.042v0m0,.042h0v0" transform="translate(-86.893 -56.361)" fill="#e0edf9"/>
      <path id="Path_3741" data-name="Path 3741" d="M126.665,46.161v-.147h0v-.041h0v-.064s0-.009,0-.014v-.04s0-.008,0-.012v-.028c0-.006,0-.01,0-.016v0c0-.006,0-.013,0-.019h0a25.854,25.854,0,0,1,3.077-11.986q.324-.536.673-1.056a25.86,25.86,0,0,0-3.751,13.427m.477,22.56V45.473a25.881,25.881,0,0,1,3.7-13.357,26.36,26.36,0,0,1,2.487-2.992A25.842,25.842,0,0,0,129.1,43.3v24.91a13.816,13.816,0,0,0-1.96.51" transform="translate(-86.893 -19.979)" fill="#b7d5f0"/>
      <path id="Path_3742" data-name="Path 3742" d="M126.665,75.429V52.7a25.86,25.86,0,0,1,3.751-13.427q.21-.312.428-.618a25.881,25.881,0,0,0-3.7,13.357V75.257q-.24.081-.477.172" transform="translate(-86.893 -26.516)" fill="#d2e5f6"/>
      <path id="Path_3743" data-name="Path 3743" d="M136.469,30.034a26.3,26.3,0,0,1,4.81-6.385q-.644.834-1.222,1.719a26.393,26.393,0,0,0-2.487,2.992q.285-.475.59-.938-.535.759-1.018,1.556-.348.519-.673,1.056" transform="translate(-93.619 -16.223)" fill="#cee3f6"/>
      <path id="Path_3744" data-name="Path 3744" d="M138.612,37.221q.482-.8,1.018-1.556-.3.462-.59.938-.219.307-.428.618" transform="translate(-95.089 -24.467)" fill="#daeaf8"/>
      <path id="Path_3745" data-name="Path 3745" d="M177.763,166.836v51.82a14.51,14.51,0,0,1-.534,3.889,14.158,14.158,0,0,1-5.529,7.626,14.011,14.011,0,0,1-7.893,2.44h-51.82a13.874,13.874,0,0,1-13.422-10.067,14.51,14.51,0,0,1-.534-3.889v-51.82a13.962,13.962,0,0,1,13.956-13.956h51.82a13.962,13.962,0,0,1,13.956,13.956" transform="translate(-67.25 -104.877)" fill="url(#linear-gradient)"/>
      <path id="Path_3746" data-name="Path 3746" d="M98.031,197.055h0Zm0,.022h0m0,.022v0m0,.021v0m73.687,63.343,0,0,0,0" transform="translate(-67.25 -135.181)" fill="#9fc0e0"/>
      <path id="Path_3747" data-name="Path 3747" d="M108.834,193.484h-10.8V168.89c0-.007,0-.013,0-.02h0v-.02h0a13.765,13.765,0,0,1,3.379-8.974,14.2,14.2,0,0,0-1.162,1.567,13.921,13.921,0,0,1,10.044-5.5,13.63,13.63,0,0,0-1.458,6.082Zm5.071,31.158H98.565l-.005-.018h15.324l.022.018m49.9,10.067h-51.82a14.207,14.207,0,0,1-8.808-3.088,258.457,258.457,0,0,1,30.612-1.77,307.8,307.8,0,0,1,37.909,2.418,14.011,14.011,0,0,1-7.893,2.44" transform="translate(-67.25 -106.974)" fill="#f6babc"/>
      <path id="Path_3748" data-name="Path 3748" d="M168.652,152.88h-51.82a13.922,13.922,0,0,0-11.738,6.463,13.889,13.889,0,0,1,11.064-5.541h51.82a13.962,13.962,0,0,1,13.956,13.956v51.82a14.525,14.525,0,0,1-.534,3.889,13.878,13.878,0,0,1-1.829,3.818,13.905,13.905,0,0,0,2.5-4.74,14.511,14.511,0,0,0,.534-3.889v-51.82a13.962,13.962,0,0,0-13.956-13.956" transform="translate(-72.096 -104.877)" fill="#f5b9bc"/>
      <path id="Path_3749" data-name="Path 3749" d="M139.728,306.656H1.568A1.568,1.568,0,0,1,0,305.088v-28a1.568,1.568,0,0,1,1.568-1.568h138.16a1.568,1.568,0,0,1,1.568,1.568v28a1.568,1.568,0,0,1-1.568,1.568" transform="translate(0 -189.007)" fill="#d0e5f7"/>
      <path id="Path_3750" data-name="Path 3750" d="M143.679,309.269H11.369a1.345,1.345,0,0,1-1.346-1.345V283.888a1.346,1.346,0,0,1,1.346-1.346h132.31a1.346,1.346,0,0,1,1.346,1.346v24.036a1.346,1.346,0,0,1-1.346,1.345" transform="translate(-6.876 -193.827)" fill="#fff"/>
      <path id="Path_3751" data-name="Path 3751" d="M78.1,312.7l-4.279-1.274.652-2.138,4.279,1.586L78.626,306h2.168l-.142,4.941,4.208-1.558.652,2.151-4.35,1.288,2.805,3.84L82.211,318l-2.636-4.081-2.55,3.982-1.771-1.29Z" transform="translate(-50.643 -209.921)" fill="#39495b"/>
      <path id="Path_3752" data-name="Path 3752" d="M131.127,312.7l-4.279-1.274.652-2.138,4.279,1.586-.127-4.87h2.168l-.142,4.941,4.208-1.558.652,2.151-4.35,1.288,2.805,3.84L135.236,318l-2.636-4.081L130.05,317.9l-1.771-1.29Z" transform="translate(-87.019 -209.921)" fill="#39495b"/>
      <path id="Path_3753" data-name="Path 3753" d="M184.153,312.7l-4.279-1.274.652-2.138,4.279,1.586-.128-4.87h2.168l-.142,4.941,4.208-1.558.652,2.151-4.35,1.288,2.806,3.84L188.262,318l-2.635-4.081-2.551,3.982-1.771-1.29Z" transform="translate(-123.395 -209.921)" fill="#39495b"/>
      <path id="Path_3754" data-name="Path 3754" d="M237.177,312.7l-4.279-1.274.652-2.138,4.279,1.586L237.7,306h2.168l-.142,4.941,4.208-1.558.652,2.151-4.35,1.288,2.805,3.84L241.286,318l-2.636-4.081L236.1,317.9l-1.771-1.29Z" transform="translate(-159.77 -209.921)" fill="#39495b"/>
      <path id="Path_3755" data-name="Path 3755" d="M290.2,312.7l-4.279-1.274.652-2.138,4.279,1.586-.128-4.87H292.9l-.142,4.941,4.208-1.558.652,2.151-4.35,1.288,2.805,3.84L294.312,318l-2.635-4.081-2.551,3.982-1.771-1.29Z" transform="translate(-196.147 -209.921)" fill="#39495b"/>
      <path id="Path_3756" data-name="Path 3756" d="M343.228,312.7l-4.279-1.274.652-2.138,4.279,1.586-.127-4.87h2.167l-.142,4.941,4.208-1.558.652,2.151-4.35,1.288,2.805,3.84L347.337,318l-2.635-4.081-2.551,3.982-1.771-1.29Z" transform="translate(-232.522 -209.921)" fill="#39495b"/>
      <path id="Path_3757" data-name="Path 3757" d="M209.293,377.9h-51.82a14.2,14.2,0,0,1-8.808-3.089l-.077-.064h62.875q-.1.47-.225.922a12.825,12.825,0,0,1-.852,2.149,10.721,10.721,0,0,1-1.092.082m-2.888,4.458a14.832,14.832,0,0,0,5.5-7.587,14.16,14.16,0,0,1-5.5,7.587m-.023.016.019-.013-.019.013" transform="translate(-101.933 -257.082)" fill="#f5b9bc"/>
      <path id="Path_3758" data-name="Path 3758" d="M172.866,382.375a307.8,307.8,0,0,0-37.909-2.418,258.458,258.458,0,0,0-30.612,1.77,14.275,14.275,0,0,1-4.614-6.978h15.341l.077.064a14.2,14.2,0,0,0,8.808,3.089h51.82a10.719,10.719,0,0,0,1.092-.082,15.424,15.424,0,0,1-.977,1.669l.027-.034a13.89,13.89,0,0,1-3.03,2.9l0,0-.019.013" transform="translate(-68.416 -257.082)" fill="#f1c5c7"/>
      <path id="Path_3759" data-name="Path 3759" d="M350.242,374.769l.006-.02-.006.02" transform="translate(-240.269 -257.082)" fill="#0b4b9c"/>
      <path id="Path_3760" data-name="Path 3760" d="M342.289,379.489a15.424,15.424,0,0,0,.977-1.669,12.827,12.827,0,0,0,.852-2.149q.127-.452.225-.922h.449l-.006.02v0a13.9,13.9,0,0,1-2.47,4.683l-.027.034" transform="translate(-234.814 -257.082)" fill="#f5b9bc"/>
      <path id="Path_3761" data-name="Path 3761" d="M272.287,16.066c-.385.722-3.078.04-6.016-1.524s-5.008-3.418-4.624-4.141,3.078-.04,6.017,1.525,5.008,3.418,4.624,4.14" transform="translate(-179.461 -6.937)" fill="#fff"/>
      <path id="Path_3762" data-name="Path 3762" d="M299.666,33c-.28.21-.895-.137-1.373-.775s-.639-1.324-.359-1.534.895.137,1.372.775.639,1.325.359,1.534" transform="translate(-204.292 -21.01)" fill="#fff"/>
      <path id="Path_3763" data-name="Path 3763" d="M314.278,163.967c-.411.99-3.477.657-6.849-.743s-5.77-3.339-5.358-4.329,3.477-.658,6.848.743,5.77,3.339,5.359,4.329" transform="translate(-207.192 -108.612)" fill="#b7d5f0"/>
      <path id="Path_3764" data-name="Path 3764" d="M342.041,181.413c.347.893.2,1.782-.321,1.986s-1.232-.354-1.579-1.247-.2-1.782.322-1.986,1.232.354,1.578,1.247" transform="translate(-233.21 -123.566)" fill="#b7d5f0"/>
    </g>
  </g>
</svg>
