<svg xmlns="http://www.w3.org/2000/svg" xmlns:xlink="http://www.w3.org/1999/xlink" width="217.856" height="136.003" viewBox="0 0 217.856 136.003">
  <defs>
    <clipPath id="clip-path">
      <rect id="Rectangle_908" data-name="Rectangle 908" width="217.856" height="136.003" fill="none"/>
    </clipPath>
    <clipPath id="clip-path-2">
      <path id="Path_3777" data-name="Path 3777" d="M184.441,21.9c-.3,0-29.979.541-39.6,6.471-5.035,11.586-4.827,23.673.591,34.07,1.146,1.367,3.046,1.374,4.339,1.379l.664,0,1.3,11.656c2.133-4.729,4.989-10.046,9.28-11.782l.136-.055h.146c.227,0,22.682.079,24.662.079l3.038,0c20.528,0,27.644-1.013,30-1.862,1.773-.64,3.795-4.467,5.148-9.749,2.31-9.012,2.35-20.739-2.019-25.8-6.04-4.033-24.97-4.47-32.853-4.47-2.911,0-4.8.057-4.834.057" transform="translate(-141.213 -21.845)" fill="none"/>
    </clipPath>
    <radialGradient id="radial-gradient" cx="0.492" cy="0.419" r="0.768" gradientUnits="objectBoundingBox">
      <stop offset="0" stop-color="#fff"/>
      <stop offset="0.005" stop-color="#fff"/>
      <stop offset="0.859" stop-color="#fff"/>
      <stop offset="1" stop-color="#fff"/>
    </radialGradient>
  </defs>
  <g id="Group_2306" data-name="Group 2306" transform="translate(-75 -365)">
    <g id="Group_2305" data-name="Group 2305" transform="translate(75 365)">
      <g id="Group_2300" data-name="Group 2300">
        <g id="Group_2299" data-name="Group 2299" clip-path="url(#clip-path)">
          <path id="Path_3765" data-name="Path 3765" d="M471.638,212.434l-.335-.141c.44,6.993,1.128,11.988,1.3,14.825l6.207-.806-1.373-14.484a14.846,14.846,0,0,1-3.147.463c-1.065.076-2.092.489-2.654.143" transform="translate(-295.667 -132.888)" fill="#00090d"/>
          <path id="Path_3766" data-name="Path 3766" d="M512.941,65.717c-13.22-16.923-25.69,18.08-39.21,6.215Q472.6,59.463,471.5,46.292c13.221,16.924,25.69-18.079,39.21-6.215.757,8.313,1.5,16.844,2.229,25.64" transform="translate(-295.792 -23.568)" fill="#e50019"/>
          <path id="Path_3767" data-name="Path 3767" d="M456.654,27.242a8.6,8.6,0,1,0-11.078,7.718c.365,2.107,1.579,17.038,2.2,25.7a18.308,18.308,0,0,1,3.433-.178,12.905,12.905,0,0,1,2.54.4c.163.043.319.1.48.152l-1.792-26.895a8.593,8.593,0,0,0,4.216-6.9" transform="translate(-275.694 -11.376)" fill="#00090d"/>
          <path id="Path_3768" data-name="Path 3768" d="M470.145,196.144a3.567,3.567,0,0,1-2.738-1.032,2.885,2.885,0,0,1-.8-3.026c.752-2.136,3.992-2.779,6.969-3.214.182-.026.316-.046.406-.061a3.484,3.484,0,0,1,.6-.053,3.008,3.008,0,0,1,2.226.952,3.682,3.682,0,0,1,.895,2.81l-.025.359a.932.932,0,0,1-.369.68l-.288.217a14.5,14.5,0,0,1-6.871,2.368" transform="translate(-292.627 -118.415)" fill="#1a1818"/>
          <path id="Path_3769" data-name="Path 3769" d="M473.009,188.121a2.086,2.086,0,0,1,1.545.657,2.764,2.764,0,0,1,.646,2.11l-.025.359-.288.217a13.578,13.578,0,0,1-6.311,2.18,2.683,2.683,0,0,1-2.055-.735,1.982,1.982,0,0,1-.606-2.082c.553-1.569,3.319-2.178,6.226-2.6.184-.027.331-.048.43-.066a2.556,2.556,0,0,1,.438-.039m0-1.863a4.406,4.406,0,0,0-.758.067c-.082.014-.2.031-.354.054l-.025,0c-3.247.474-6.789,1.2-7.714,3.827a3.862,3.862,0,0,0,1,3.969,4.46,4.46,0,0,0,3.421,1.33,15.393,15.393,0,0,0,7.432-2.555l.288-.217a1.864,1.864,0,0,0,.738-1.36l.025-.359a4.6,4.6,0,0,0-1.143-3.51,3.931,3.931,0,0,0-2.907-1.248" transform="translate(-291.058 -116.847)" fill="#fff"/>
          <path id="Path_3770" data-name="Path 3770" d="M467.884,178.414a3.261,3.261,0,0,1-2.753-1.235,2.838,2.838,0,0,1-.476-2.924c.837-1.978,3.847-2.728,8.11-3.247.264-.032.46-.056.582-.075a2.916,2.916,0,0,1,.462-.037,2.691,2.691,0,0,1,2.12,1.009,3.753,3.753,0,0,1,.621,3.145l-.059.287a.934.934,0,0,1-.345.553l-.234.179a9.032,9.032,0,0,1-4.281,1.636l-.45.085c-.155.029-.4.1-.659.165a10.334,10.334,0,0,1-2.639.46" transform="translate(-291.363 -107.21)" fill="#1a1818"/>
          <path id="Path_3771" data-name="Path 3771" d="M472.242,170.259a1.774,1.774,0,0,1,1.4.666,2.833,2.833,0,0,1,.431,2.369l-.059.288-.234.179a8.167,8.167,0,0,1-3.884,1.459l-.452.085c-.195.037-.46.109-.74.184a9.56,9.56,0,0,1-2.385.425,2.369,2.369,0,0,1-2.01-.865,1.923,1.923,0,0,1-.362-2c.7-1.658,3.955-2.27,7.365-2.686.272-.033.485-.058.617-.08a1.968,1.968,0,0,1,.316-.026m0-1.863a3.842,3.842,0,0,0-.611.049c-.11.018-.284.038-.5.065l-.042.005c-3.864.471-7.73,1.152-8.856,3.809a3.808,3.808,0,0,0,.592,3.85,4.158,4.158,0,0,0,3.5,1.6,11.2,11.2,0,0,0,2.87-.489c.226-.061.48-.13.606-.154l.445-.084a9.91,9.91,0,0,0,4.674-1.812l.233-.179a1.863,1.863,0,0,0,.691-1.1l.059-.288a4.67,4.67,0,0,0-.812-3.921,3.653,3.653,0,0,0-2.841-1.352" transform="translate(-289.796 -105.641)" fill="#fff"/>
          <path id="Path_3772" data-name="Path 3772" d="M465.664,161.24a3.289,3.289,0,0,1-2.934-1.422,2.847,2.847,0,0,1-.3-2.9c1.018-2.13,4.592-2.64,8.164-2.98l.053-.005c.29-.028.518-.048.659-.069a3.017,3.017,0,0,1,.435-.032,2.948,2.948,0,0,1,2.27,1.07,3.132,3.132,0,0,1,.663,2.581c0,.019-.013.065-.018.084-.634,2.474-3.431,2.795-4.934,2.967-.284.033-.547.063-.733.1-.167.03-.423.1-.693.167a10.657,10.657,0,0,1-2.632.442" transform="translate(-289.935 -96.506)" fill="#1a1818"/>
          <path id="Path_3773" data-name="Path 3773" d="M470.176,153.2a2.019,2.019,0,0,1,1.554.734,2.2,2.2,0,0,1,.463,1.816l0,.027-.007.026c-.466,1.821-2.671,2.074-4.13,2.241-.3.034-.576.066-.792.105s-.479.108-.77.184a9.9,9.9,0,0,1-2.389.41,2.4,2.4,0,0,1-2.157-1,1.928,1.928,0,0,1-.236-1.984c.808-1.691,4.249-2.153,7.411-2.454.335-.032.6-.056.758-.079a2.077,2.077,0,0,1,.3-.022m0-1.863a3.954,3.954,0,0,0-.57.041c-.1.015-.342.038-.6.062l-.068.006c-4,.38-7.687.934-8.916,3.505a3.815,3.815,0,0,0,.363,3.815A4.266,4.266,0,0,0,464.1,160.6a11.536,11.536,0,0,0,2.858-.47c.235-.061.5-.13.632-.154.156-.028.417-.058.67-.087,1.607-.184,4.942-.567,5.727-3.63l.007-.029q.016-.06.027-.122l0-.027a4.06,4.06,0,0,0-.863-3.346,3.877,3.877,0,0,0-2.986-1.405" transform="translate(-288.37 -94.938)" fill="#fff"/>
          <path id="Path_3774" data-name="Path 3774" d="M298.942,152.371l-1-.829c-.173.862-.311,1.562-.455,2.261a8.512,8.512,0,0,1-.966,2.463c-2,2.992-6.24,3.014-6.465,2.451-.25-.625,0-1.417,3.126-2.084s3.793-8.337,4.5-10.5,2.543-2.334,6.419-2.459c2.982-.1,4.037-1.029,4.366-1.455.432-.44.547-1-.107-1.675-.284-.292-1.474-.372-1.732-.423-1.1-.217-2.144-.605-3.239-.827a14.269,14.269,0,0,0-5.955.254c-1.445.324-3.63.646-4.728,1.718-1.43,1.4-2.312,3.968-3.266,5.715a40.216,40.216,0,0,1-2.795,4.968c-1.936,2.57-7.82,16.91-12.965,23.384.885-5.357,1.65-9.3,1.928-10.948q.44-2.768.922-5.557t.946-5.294c.307-1.67.723-4.219.987-5.537s.483-2.357.659-3.119a3.865,3.865,0,0,0,.132-.922,2.059,2.059,0,0,0-.922-1.867,4.145,4.145,0,0,0-2.285-.593,8.163,8.163,0,0,0-2.417.4,9.171,9.171,0,0,0-2.438,1.186,8.975,8.975,0,0,0-2.065,1.955,6.852,6.852,0,0,0-1.252,2.658l-3.206,13.972a24.983,24.983,0,0,1-.768,3.515,24.3,24.3,0,0,1-1.56,4.086,13.684,13.684,0,0,1-2.285,3.382,3.959,3.959,0,0,1-2.943,1.406,2.664,2.664,0,0,1-1.669-.5,3.626,3.626,0,0,1-1.054-1.318,6.317,6.317,0,0,1-.55-1.845,14.457,14.457,0,0,1-.154-2.131,39.28,39.28,0,0,1,.352-4.878q.352-2.767.945-5.645t1.362-5.624q.768-2.745,1.559-4.766a6.776,6.776,0,0,0,.374-1.23,5.588,5.588,0,0,0,.11-1.055,2.722,2.722,0,0,0-1.1-2.394,4.479,4.479,0,0,0-2.636-.769,7.67,7.67,0,0,0-3.691,1.032,6.939,6.939,0,0,0-2.9,3.01q-1.362,2.768-2.417,5.47a43.6,43.6,0,0,0-1.757,5.6,50.631,50.631,0,0,0-1.077,6.107c-.207,1.775-.323,3.7-.358,5.758-.145.138-.285.278-.434.414a22.893,22.893,0,0,1-2.065,1.691,11.928,11.928,0,0,1-2.043,1.209,4.64,4.64,0,0,1-1.933.461,1.54,1.54,0,0,1-1.6-1.163,11,11,0,0,1-.374-3.229,31.944,31.944,0,0,1,.44-5.118q.44-2.7.968-5.4t.965-5.272a27.943,27.943,0,0,0,.44-4.679,7.63,7.63,0,0,0-.242-2.153,2.906,2.906,0,0,0-.682-1.231,2.071,2.071,0,0,0-1.009-.571,5.5,5.5,0,0,0-1.232-.132c-.323,0-.65.007-.987.022s-.667.022-.99.022a9.4,9.4,0,0,1-1.119-.066,3.976,3.976,0,0,1-1.075-.286,2.04,2.04,0,0,1-.88-.7q-.352-.483-.726-.989a4.008,4.008,0,0,0-.943-.9,2.755,2.755,0,0,0-1.583-.4,14.549,14.549,0,0,0-5.953,1.3,23.655,23.655,0,0,0-5.557,3.493,30.731,30.731,0,0,0-4.855,5.14,38.734,38.734,0,0,0-3.844,6.26,37.157,37.157,0,0,0-2.549,6.787,26.359,26.359,0,0,0-.921,6.767,13.954,13.954,0,0,0,.921,5.206,12.064,12.064,0,0,0,2.461,3.91,10.714,10.714,0,0,0,3.538,2.461,10.333,10.333,0,0,0,4.108.856,12.47,12.47,0,0,0,3.954-.658,21.528,21.528,0,0,0,3.8-1.692,22.951,22.951,0,0,0,3.36-2.307,21.333,21.333,0,0,0,2.593-2.5,15.231,15.231,0,0,0,3.338,5.426,6.683,6.683,0,0,0,4.834,1.867,10.9,10.9,0,0,0,4.833-1.186,23.835,23.835,0,0,0,4.526-2.9c.28-.228.55-.46.819-.692a10.967,10.967,0,0,0,1.068,1.329,10.7,10.7,0,0,0,3.537,2.461,10.336,10.336,0,0,0,4.108.856,11.034,11.034,0,0,0,4.986-1.3,23.1,23.1,0,0,0,4.943-3.405l-1.187,4.087q-3.163,2.591-6.261,5.447t-5.93,5.8q-2.834,2.941-5.25,5.909a62.091,62.091,0,0,0-4.174,5.711,32.656,32.656,0,0,0-2.767,5.228,12.008,12.008,0,0,0-1.01,4.46,9.3,9.3,0,0,0,.966,4.57,7.206,7.206,0,0,0,2.438,2.635,8.9,8.9,0,0,0,3.207,1.23,18.67,18.67,0,0,0,3.229.308,17.819,17.819,0,0,0,6.9-1.3,19.085,19.085,0,0,0,5.645-3.625,26.159,26.159,0,0,0,4.526-5.579,47.122,47.122,0,0,0,3.558-7.139,67.434,67.434,0,0,0,2.7-8.348c.242-.945.824-6.412,1.53-10.517,2.033-1.661,17.191-21.264,19.8-21.514,1.5-.143,2.872.464,4.358.462a7.587,7.587,0,0,0,4.066-1.3,4.487,4.487,0,0,1,.127-5.673c-2.189-1.842-2.158-4.006-.922-6.352M223.9,161.657a25.165,25.165,0,0,1-.767,3.515,24.236,24.236,0,0,1-1.561,4.086,13.615,13.615,0,0,1-2.285,3.382,3.957,3.957,0,0,1-2.942,1.406,2.662,2.662,0,0,1-1.669-.5,3.626,3.626,0,0,1-1.056-1.318,6.316,6.316,0,0,1-.55-1.845,14.4,14.4,0,0,1-.154-2.131,18.443,18.443,0,0,1,.506-4.13,26.215,26.215,0,0,1,1.43-4.372,27.384,27.384,0,0,1,2.194-4.152,21.994,21.994,0,0,1,2.791-3.515,13.122,13.122,0,0,1,3.231-2.438,7.464,7.464,0,0,1,3.514-.9Zm35.851,36.069q-.616,2.242-1.494,4.592a44.289,44.289,0,0,1-2.021,4.59,24.2,24.2,0,0,1-2.527,4,12.816,12.816,0,0,1-3.031,2.833,6.279,6.279,0,0,1-3.492,1.077q-1.757,0-1.758-1.626a6.786,6.786,0,0,1,.66-2.548,22.779,22.779,0,0,1,1.8-3.317q1.141-1.779,2.657-3.712t3.207-3.757q1.692-1.823,3.471-3.4a32.033,32.033,0,0,1,3.493-2.725q-.352,1.757-.966,4" transform="translate(-126.515 -87.25)" fill="#00090d"/>
          <path id="Path_3775" data-name="Path 3775" d="M127.274,167.133V182.96H141.56V166.5a15.262,15.262,0,0,1,1.577-7.493,9.346,9.346,0,0,1,4.166-4.027,13.115,13.115,0,0,1,5.674-1.226q1.539,0,3.4.175a38.97,38.97,0,0,1,3.958.6V142.341a24.008,24.008,0,0,0-2.521-.421,22.275,22.275,0,0,0-2.452-.14,13.421,13.421,0,0,0-7,1.716,14.6,14.6,0,0,0-4.8,4.691,24.965,24.965,0,0,0-2.6,5.423l-1.773-10.64H124.614l1.993,10.077" transform="translate(-78.175 -88.945)" fill="#00090d"/>
          <path id="Path_3776" data-name="Path 3776" d="M29.418,33.467c7.537-2.159,12.931.3,15.423,2.194,4.907,3.733,5.541,12.658,4.928,15.781a7.555,7.555,0,0,1-4.047,5.1A6.754,6.754,0,0,1,38.371,55.2a5.886,5.886,0,0,1-1.547-6.945,7.689,7.689,0,0,1,6.666-3.469,15.117,15.117,0,0,1,2.654.066c-1.56-3.712-7.639-5.777-12.944-3.078-3.6,1.833-17.513,15.361-17.645,37.708s9.874,30.04,14.021,30.179c11.783.4,17-9.912,18.578-12.091,1.855-2.561,1.844-5.637,2.523-9.155.55-.878-.075-1.794.418-2.707.97-1.8,10.032,2.313,8.932,4.277C59.08,91.677,58.143,93.376,57.1,95c-1.434,2.23-2.929,5.54-4.469,7.7-1.043,1.46-1.856,3.22-3.15,4.461-.8.763-1.824,3.2-7.837,6.2s-17.332,2.464-21.329,1.122S0,105.405,0,82.946c0-31.131,21.881-47.32,29.418-49.479" transform="translate(0 -20.467)" fill="#1a1818"/>
        </g>
      </g>
      <g id="Group_2302" data-name="Group 2302" transform="translate(52.625 8.141)">
        <g id="Group_2301" data-name="Group 2301" clip-path="url(#clip-path-2)">
          <rect id="Rectangle_909" data-name="Rectangle 909" width="86.689" height="53.635" transform="translate(-1.405 0)" fill="url(#radial-gradient)"/>
        </g>
      </g>
      <g id="Group_2304" data-name="Group 2304">
        <g id="Group_2303" data-name="Group 2303" clip-path="url(#clip-path)">
          <path id="Path_3778" data-name="Path 3778" d="M188.04,21.336c16.385,0,28.146,1.562,32.356,4.29,4.135,4.908,4.044,16.271,1.8,25.05-1.464,5.712-3.452,8.791-4.68,9.233-2.3.829-9.327,1.818-29.745,1.818l-1.994,0h-1.045c-1.978,0-24.432-.078-24.659-.079h-.293l-.271.11c-3.808,1.54-6.494,5.635-8.551,9.775l-.935-8.381-.148-1.32-1.328-.005h-.032c-1.169,0-2.757-.01-3.689-1.055-5.239-10.111-5.457-21.854-.622-33.135,9.639-5.708,38.723-6.234,39.02-6.239h.022c.019,0,1.9-.057,4.8-.057m0-1.491c-2.959,0-4.845.058-4.845.058s-30.477.481-40.177,6.706c-5.5,12.489-4.706,24.942.557,34.992,1.374,1.711,3.621,1.706,4.961,1.711l1.535,13.753c2.262-5.227,5.22-12,9.992-13.93,0,0,22.66.079,24.664.079.682,0,1.729,0,3.039,0,7.886,0,25.317-.127,30.251-1.906,5.754-2.075,11.043-28.121,3.375-36.813-6.032-4.135-24.491-4.653-33.352-4.653" transform="translate(-87.354 -12.45)" fill="#9b9e9e"/>
          <path id="Path_3779" data-name="Path 3779" d="M235.994,61.949l.31,2.261,1.325-2.169.559-2.621L239.5,56.6l2.57,1.269,2.311-.841,2.193.259.06,2.163,0,2.115-.753,2.065.066,2.833,1.417-2.585-.881-2.59,2.46-1.6-.214-2.909,3.186.262,2.593.266,2.044-1.881-.793.17-1.578-1.067-1.593-1.187-1.043-.32-.4-1.86,1.821-1.878.518-2,.649-1.642,1.967-.417,1.818-1.586,2.123.585,2.535-.675-2.746.14-1.609-1.342-2.06-.143-2.518-.336.742-2.574-.289-2.053,1.467-2.083-.736-2.025-.156,1.938L253.3,36.746l-.191,2.143-1.71,1.722-2.267-.3-2.108.382-2.114.274-2.184-.27-.758-2.483-.018-2.43,1.921-2.466-1.842-1.8.244,2.691-.578,2.3-.884,2.224L239.29,40.6l-2,.009-2.147.849-2.442,1.2-3.24.553,2.808.036,1.789.936,1.974.283,2.153.067-.645,2.962-.6,2.588-.518,2.752-2.278,1.057-2.24-.5-2.155.553-.668.78,2.056,1.329,2.462.413,2.713-.25-.733,3ZM242.21,46l.738-1.305,2.167.505,2.2-.343,2.842.516-2.052,2.356.177,2.539L247.4,52.61l-2.1.272-2.19.41L240.96,52.06l1.2-2.205.212-1.908Z" transform="translate(-143.71 -19.771)" fill="#00090d"/>
          <path id="Path_3780" data-name="Path 3780" d="M235.994,61.949l.31,2.261,1.325-2.169.559-2.621L239.5,56.6l2.57,1.269,2.311-.841,2.193.259.06,2.163,0,2.115-.753,2.065.066,2.833,1.417-2.585-.881-2.59,2.46-1.6-.214-2.909,3.186.262,2.593.266,2.044-1.881-.793.17-1.578-1.067-1.593-1.187-1.043-.32-.4-1.86,1.821-1.878.518-2,.649-1.642,1.967-.417,1.818-1.586,2.123.585,2.535-.675-2.746.14-1.609-1.342-2.06-.143-2.518-.336.742-2.574-.289-2.053,1.467-2.083-.736-2.025-.156,1.938L253.3,36.746l-.191,2.143-1.71,1.722-2.267-.3-2.108.382-2.114.274-2.184-.27-.758-2.483-.018-2.43,1.921-2.466-1.842-1.8.244,2.691-.578,2.3-.884,2.224L239.29,40.6l-2,.009-2.147.849-2.442,1.2-3.24.553,2.808.036,1.789.936,1.974.283,2.153.067-.645,2.962-.6,2.588-.518,2.752-2.278,1.057-2.24-.5-2.155.553-.668.78,2.056,1.329,2.462.413,2.713-.25-.733,3ZM242.21,46l.738-1.305,2.167.505,2.2-.343,2.842.516-2.052,2.356.177,2.539L247.4,52.61l-2.1.272-2.19.41L240.96,52.06l1.2-2.205.212-1.908Z" transform="translate(-143.71 -19.771)" fill="none" stroke="#00090d" stroke-width="1"/>
          <path id="Path_3781" data-name="Path 3781" d="M154.811,73.745l2.368.437,2.2.67,2.313.772,2.392-.4,2.306-.741,1.11-2.536L169.4,70.83l1.11-1.912,2.191-1.309.276-2.368.742-2.128-.331-2.288.778-2.21-.774-2.155-.817-2.034.222-2.567-1.13-2.084-1.631-1.72-1.863-.269.691,1.111.54,2.053.515,2.026.634,1.885.977,2.149-1.061,2.1-.25,2.185-.771,2.089-1.7,1.472-1.312,1.777-2.149.571L162.441,68.7l-2.207-.7-2.181-.292-1.807-1.456-1.6-1.8-.171-2.394-.515-2.413,1.344-2.1.759-2.22L157.984,54l1.891-1.428,2,1.251,2.288.709-.9,2.2-.405,1.888-1.591,1.153-2.135-.492.212-2.355,1.236-1.88-2.12,1.3-.74,2.161.645,2.314,1.817,1.872,2.194-.532,2.459.061.893-2.272.372-2.064,1.058-1.892.508-2.254-1.2-1.968-1.531-1.5-1.579-1.512-2.193-.082-2.111-.073-2.441-.195-2.116,1.16-2.146,1.15L151.234,52.9l-1.6,1.78-.15,2.437-1.077,2.13-.334,2.357,1.427,2.166.468,2.152.527,2.218.644,2.412,1.929,1.464Z" transform="translate(-92.894 -29.978)" fill="#00090d"/>
          <path id="Path_3782" data-name="Path 3782" d="M154.811,73.745l2.368.437,2.2.67,2.313.772,2.392-.4,2.306-.741,1.11-2.536L169.4,70.83l1.11-1.912,2.191-1.309.276-2.368.742-2.128-.331-2.288.778-2.21-.774-2.155-.817-2.034.222-2.567-1.13-2.084-1.631-1.72-1.863-.269.691,1.111.54,2.053.515,2.026.634,1.885.977,2.149-1.061,2.1-.25,2.185-.771,2.089-1.7,1.472-1.312,1.777-2.149.571L162.441,68.7l-2.207-.7-2.181-.292-1.807-1.456-1.6-1.8-.171-2.394-.515-2.413,1.344-2.1.759-2.22L157.984,54l1.891-1.428,2,1.251,2.288.709-.9,2.2-.405,1.888-1.591,1.153-2.135-.492.212-2.355,1.236-1.88-2.12,1.3-.74,2.161.645,2.314,1.817,1.872,2.194-.532,2.459.061.893-2.272.372-2.064,1.058-1.892.508-2.254-1.2-1.968-1.531-1.5-1.579-1.512-2.193-.082-2.111-.073-2.441-.195-2.116,1.16-2.146,1.15L151.234,52.9l-1.6,1.78-.15,2.437-1.077,2.13-.334,2.357,1.427,2.166.468,2.152.527,2.218.644,2.412,1.929,1.464Z" transform="translate(-92.894 -29.978)" fill="none" stroke="#00090d" stroke-width="1"/>
          <path id="Path_3783" data-name="Path 3783" d="M331.867,56.332l.493-2.177,1.589-1.843-.438-2.415.382-2.172.143-2.2.525-2.167.954-2.215-.934-2.222.251-2.278-1.062-1.964-.955.741L331.95,37.4l-1.144,1.859-.665,2.073-1.067,1.984.253,2.286-1.575,2,.365,2.266-.618,2.2,1.133,2.2.159,2.177-.054,2.2.311,1.971,1.332-.724.7-1.8Z" transform="translate(-205.453 -21.755)" fill="#00090d"/>
          <path id="Path_3784" data-name="Path 3784" d="M331.867,56.332l.493-2.177,1.589-1.843-.438-2.415.382-2.172.143-2.2.525-2.167.954-2.215-.934-2.222.251-2.278-1.062-1.964-.955.741L331.95,37.4l-1.144,1.859-.665,2.073-1.067,1.984.253,2.286-1.575,2,.365,2.266-.618,2.2,1.133,2.2.159,2.177-.054,2.2.311,1.971,1.332-.724.7-1.8Z" transform="translate(-205.453 -21.755)" fill="none" stroke="#00090d" stroke-width="1"/>
          <path id="Path_3785" data-name="Path 3785" d="M326.214,116.563l.834-2.548-1.5-2.235-2.471-.471-1.547,1.866.113,2.481,2.145,1.315Z" transform="translate(-201.708 -69.828)" fill="#00090d"/>
          <path id="Path_3786" data-name="Path 3786" d="M326.214,116.563l.834-2.548-1.5-2.235-2.471-.471-1.547,1.866.113,2.481,2.145,1.315Z" transform="translate(-201.708 -69.828)" fill="none" stroke="#00090d" stroke-width="1"/>
        </g>
      </g>
    </g>
  </g>
</svg>
