<svg xmlns="http://www.w3.org/2000/svg" width="20.589" height="24" viewBox="0 0 20.589 24">
  <g id="Group_2274" data-name="Group 2274" transform="translate(-63.835 -32)">
    <path id="Path_3716" data-name="Path 3716" d="M83.991,48.57l-.262-.318c-1.179-1.426-1.892-2.286-1.892-6.321a8.184,8.184,0,0,0-1.485-5.089,6.989,6.989,0,0,0-3-2.2.161.161,0,0,1-.044-.036,3.239,3.239,0,0,0-6.352,0,.168.168,0,0,1-.043.035c-3.02,1.243-4.488,3.629-4.488,7.293,0,4.037-.712,4.9-1.892,6.321-.086.1-.173.208-.262.318a1.884,1.884,0,0,0-.249,2.015,2,2,0,0,0,1.839,1.129H82.407a2,2,0,0,0,1.832-1.125A1.884,1.884,0,0,0,83.991,48.57Z" fill="#737373"/>
    <path id="Path_3717" data-name="Path 3717" d="M188.9,434.571a4.289,4.289,0,0,0,3.774-2.257.214.214,0,0,0-.19-.314h-7.167a.214.214,0,0,0-.19.314A4.289,4.289,0,0,0,188.9,434.571Z" transform="translate(-114.774 -378.571)" fill="#737373"/>
  </g>
</svg>
