<svg xmlns="http://www.w3.org/2000/svg" width="32.395" height="32.396" viewBox="0 0 32.395 32.396">
  <path id="Path_3684" data-name="Path 3684" d="M32.4,16.2A16.2,16.2,0,0,1,4.745,27.651,16.2,16.2,0,0,1,8,2.226a1.892,1.892,0,0,1,2.85,1.631,1.853,1.853,0,0,1-.929,1.706,12.347,12.347,0,1,0,12.552,0,1.85,1.85,0,0,1-.929-1.628A1.893,1.893,0,0,1,24.4,2.225a16.226,16.226,0,0,1,8,13.972ZM18.069,13.659V1.87a1.87,1.87,0,0,0-3.74,0V13.658a1.87,1.87,0,0,0,3.74,0Z" transform="translate(-0.001 0)" fill-rule="evenodd"/>
</svg>
