<svg xmlns="http://www.w3.org/2000/svg" width="29.298" height="23.279" viewBox="0 0 29.298 23.279">
  <g id="Group_1957" data-name="Group 1957" transform="translate(-180.884 -259.13)">
    <g id="Group_1956" data-name="Group 1956" transform="translate(188.307 259.13)">
      <path id="Path_3680" data-name="Path 3680" d="M183.784,65.709a.994.994,0,0,0-.24.389l-1.407,4.22a.994.994,0,0,0,1.258,1.258l4.22-1.407a.994.994,0,0,0,.389-.24L200.427,57.5l-4.22-4.22Z" transform="translate(-182.085 -49.752)"/>
      <path id="Path_3681" data-name="Path 3681" d="M420.274.485a1.658,1.658,0,0,0-2.344,0l-1.641,1.641,4.22,4.22L422.15,4.7a1.658,1.658,0,0,0,0-2.344Z" transform="translate(-400.76 0)"/>
    </g>
    <line id="Line_9" data-name="Line 9" x2="16.861" transform="translate(182.384 280.909)" fill="none" stroke="#000" stroke-linecap="round" stroke-width="3"/>
  </g>
</svg>
