<svg xmlns="http://www.w3.org/2000/svg" width="35.273" height="60" viewBox="0 0 35.273 60">
  <g id="question-mark" transform="translate(-105.999)">
    <ellipse id="Ellipse_79" data-name="Ellipse 79" cx="4.5" cy="5" rx="4.5" ry="5" transform="translate(118.999 50)" fill="#737373"/>
    <path id="Path_3705" data-name="Path 3705" d="M141.248,16.706A17.689,17.689,0,0,0,124,0c-.121,0-.24,0-.36,0A17.624,17.624,0,0,0,106,17.636a5.291,5.291,0,0,0,10.582,0,7.172,7.172,0,0,1,.068-.991,7.054,7.054,0,1,1,6.986,8.045,5.291,5.291,0,0,0-5.291,5.291V40.446a5.291,5.291,0,1,0,10.582,0V34.454a17.7,17.7,0,0,0,7.5-4.676A17.493,17.493,0,0,0,141.248,16.706Z" transform="translate(0 0)" fill="#737373"/>
  </g>
</svg>
