<svg xmlns="http://www.w3.org/2000/svg" width="120.002" height="120" viewBox="0 0 120.002 120">
  <g id="Group_1812" data-name="Group 1812" transform="translate(-136 -241)">
    <path id="Path_3663" data-name="Path 3663" d="M116.374,30.436C113.224,18.841,101.166,6.78,89.569,3.63A119.551,119.551,0,0,0,60,0,119.54,119.54,0,0,0,30.436,3.63C18.841,6.78,6.78,18.839,3.63,30.436A119.524,119.524,0,0,0,0,60,119.451,119.451,0,0,0,3.628,89.566c3.15,11.6,15.211,23.655,26.805,26.805A119.483,119.483,0,0,0,60,120a119.467,119.467,0,0,0,29.566-3.628c11.6-3.15,23.655-15.209,26.805-26.805A119.577,119.577,0,0,0,120,60,119.446,119.446,0,0,0,116.374,30.436Z" transform="translate(136 241)" fill="#fce5e7"/>
    <g id="Group_1811" data-name="Group 1811" transform="translate(163 260)">
      <path id="Path_3665" data-name="Path 3665" d="M115,16.4V59.138c-15.515,15.494-31.03-7.315-46.545-5.3a16.986,16.986,0,0,0-9.938,5.3V16.4a16.984,16.984,0,0,1,9.938-5.3C83.969,9.088,99.483,31.9,115,16.4Zm0,0" transform="translate(-49.24 -9.235)" fill="#f94141"/>
      <path id="Path_3666" data-name="Path 3666" d="M50.431,11.777V54.512a16.986,16.986,0,0,0-9.938,5.3L37.1,36.623l3.4-19.546a16.984,16.984,0,0,1,9.938-5.3Zm0,0" transform="translate(-31.217 -9.91)" fill="#e22b2b"/>
      <path id="Path_3667" data-name="Path 3667" d="M9.276,4.638V76.526a4.638,4.638,0,0,1-9.276,0V4.638a4.638,4.638,0,1,1,9.276,0Zm0,0" fill="#e86328"/>
      <path id="Path_3668" data-name="Path 3668" d="M29.5,6.811V78.7a4.634,4.634,0,0,1-2.733,4.229A4.633,4.633,0,0,1,24.031,78.7V6.811a4.636,4.636,0,0,1,2.733-4.229A4.636,4.636,0,0,1,29.5,6.811Zm0,0" transform="translate(-20.222 -2.173)" fill="#ff8040"/>
    </g>
  </g>
</svg>
