<svg xmlns="http://www.w3.org/2000/svg" width="115.586" height="100" viewBox="0 0 115.586 100">
  <g id="Stickers" transform="translate(-2.823 -2.845)" style="mix-blend-mode: normal;isolation: isolate">
    <path id="Path_3562" data-name="Path 3562" d="M63.7,346.79a14.013,14.013,0,1,1-4.1-9.975A14.082,14.082,0,0,1,63.7,346.79Z" transform="translate(-28.45 -261.035)" fill="#00abfe"/>
    <path id="Path_3563" data-name="Path 3563" d="M65,407.116a14.081,14.081,0,0,1-23.761-2.566A17.777,17.777,0,0,1,65,407.116Z" transform="translate(-32.753 -312.672)" fill="#7ad001"/>
    <path id="Path_3564" data-name="Path 3564" d="M80.2,351.943c-.857,1.282-1.008,4.5-.511,5.962.961,2.834,3.993,2.848,5.36.481a8.938,8.938,0,0,0,.384-6.368C84.451,349.928,81.341,350.231,80.2,351.943Z" transform="translate(-61.548 -274.498)" fill="#7ad001"/>
    <path id="Path_3565" data-name="Path 3565" d="M270.25,204.65c-11.739-3.626-25.515-7.279-37.478-10.118a44.826,44.826,0,0,1-10.717,3.57,104.71,104.71,0,0,1-22.984-31.468c4.481.74,13.455,1.425,16.78-1.63-.975-4.571-2.539-14.5-1.167-18.978.988-3.226,3.486-2.908,4.811-1.239,1.617,2.037,1.247,5.564,5.646,12.456,3.823,4.863,7.494,9.845,11.273,14.7a241.418,241.418,0,0,0,33.836,8.92Z" transform="translate(-151.841 -118.314)" fill="#ffad92"/>
    <path id="Path_3566" data-name="Path 3566" d="M368.874,272.481l-2.89,11.194c-.84,3.252,2.07,3.924,3.3.451,2.352-6.637,2.406-13.836,2.433-20.878.019-4.885-3.187-5.172-3.186-2.22C368.533,264.847,369.83,268.777,368.874,272.481Z" transform="translate(-277.667 -205.513)" fill="#a369f7"/>
    <path id="Path_3567" data-name="Path 3567" d="M271.624,266.224a.614.614,0,0,1-.466-.214,33.3,33.3,0,0,1-7.145-14.164.614.614,0,1,1,1.2-.275,32.06,32.06,0,0,0,6.881,13.64.614.614,0,0,1-.466,1.013Z" transform="translate(-200.829 -199.454)" fill="#ed6c4d"/>
    <path id="Path_3568" data-name="Path 3568" d="M268.968,195.654h-.011l-3.064-.056a.614.614,0,0,1,.023-1.227l3.064.056a.614.614,0,1,1-.011,1.227Z" transform="translate(-201.804 -156.655)" fill="#ed6c4d"/>
    <path id="Path_3569" data-name="Path 3569" d="M308.94,66.4a14.014,14.014,0,1,1-4.1-9.975A14.081,14.081,0,0,1,308.94,66.4Z" transform="translate(-213.49 -49.478)" fill="#ff605b"/>
    <path id="Path_3570" data-name="Path 3570" d="M310.242,126.709a14.081,14.081,0,0,1-23.763-2.566A17.777,17.777,0,0,1,310.242,126.709Z" transform="translate(-217.792 -101.095)" fill="#c72f55"/>
    <path id="Path_3571" data-name="Path 3571" d="M325.444,71.554c-.857,1.282-1.006,4.5-.511,5.962.961,2.834,3.993,2.849,5.36.481a8.937,8.937,0,0,0,.383-6.369C329.7,69.539,326.588,69.843,325.444,71.554Z" transform="translate(-246.593 -62.94)" fill="#c72f55"/>
    <path id="Path_3572" data-name="Path 3572" d="M65.156,66.4a14.015,14.015,0,1,1-4.1-9.975,14.082,14.082,0,0,1,4.1,9.975Z" transform="translate(-29.551 -49.478)" fill="#ffb020"/>
    <path id="Path_3573" data-name="Path 3573" d="M66.454,126.727a14.081,14.081,0,0,1-23.763-2.566,17.779,17.779,0,0,1,23.763,2.566Z" transform="translate(-33.85 -101.114)" fill="#a369f7"/>
    <path id="Path_3574" data-name="Path 3574" d="M81.654,71.554c-.857,1.282-1.008,4.5-.511,5.962.961,2.834,3.993,2.849,5.36.481a8.939,8.939,0,0,0,.383-6.369C85.91,69.539,82.8,69.843,81.654,71.554Z" transform="translate(-62.649 -62.94)" fill="#a369f7"/>
    <path id="Path_3575" data-name="Path 3575" d="M55.893,137.273l36.85,53.806c1.943,3.044-.667,8.947-4.02,10.332L58.411,213.928a5.883,5.883,0,0,1-7.4-2.593L18.924,152.7c-1.713-3.131-.4-9.857,2.987-11.059l27.052-6.734A5.885,5.885,0,0,1,55.893,137.273Z" transform="translate(-15.352 -111.533)" fill="#c72f55"/>
    <path id="Path_3576" data-name="Path 3576" d="M60.108,123.44l35.529,55.665a5.79,5.79,0,0,1-2.7,8.473L62.625,200.1a5.884,5.884,0,0,1-7.4-2.594L23.139,138.871a5.793,5.793,0,0,1,3.173-8.243l26.866-9.551a5.886,5.886,0,0,1,6.93,2.363Z" transform="translate(-18.564 -101.096)" fill="#ff605b"/>
    <path id="Path_3577" data-name="Path 3577" d="M34.551,147.666l30.234,55.026a5.319,5.319,0,0,0,6.694,2.345l27.409-11.318a5.234,5.234,0,0,0,2.44-7.659L67.975,133.717a5.323,5.323,0,0,0-6.267-2.136l-2.008.712.417.831a2.835,2.835,0,0,1-1.733,4l-15.4,4.62a2.884,2.884,0,0,1-3.486-1.629l-.237-.556-1.845.655a5.241,5.241,0,0,0-2.868,7.454Z" transform="translate(-27.226 -109.046)" fill="#fff"/>
    <path id="Path_3578" data-name="Path 3578" d="M93.634,194.344l15.237-6.526a5.116,5.116,0,0,1,6.606,2.447l14.238,28.974a5.117,5.117,0,0,1-2.16,6.759l-13.319,7.191a5.117,5.117,0,0,1-6.923-2.053L91.156,201.5a5.116,5.116,0,0,1,2.478-7.152Z" transform="translate(-69.947 -151.399)" fill="#00abfe"/>
    <path id="Path_3579" data-name="Path 3579" d="M149.248,278.781l.042.077a1.953,1.953,0,0,0,2.6.8l9.753-4.959a1.953,1.953,0,0,0-1.756-3.488l-9.795,4.881a1.953,1.953,0,0,0-.84,2.689Z" transform="translate(-114.066 -214.478)" fill="#7ad001"/>
    <path id="Path_3580" data-name="Path 3580" d="M162.678,300.866a.614.614,0,0,1,.267-.826l12.523-6.413a.614.614,0,1,1,.56,1.093L163.5,301.133A.614.614,0,0,1,162.678,300.866Z" transform="translate(-124.331 -231.496)" fill="#a369f7"/>
    <path id="Path_3581" data-name="Path 3581" d="M158.957,318.844a.614.614,0,0,1,.265-.827l17.945-9.233a.614.614,0,1,1,.561,1.091l-17.945,9.233A.614.614,0,0,1,158.957,318.844Z" transform="translate(-121.523 -242.932)" fill="#a369f7"/>
    <path id="Path_3582" data-name="Path 3582" d="M139.34,218.239a6.768,6.768,0,1,1-4.073-3.247A6.8,6.8,0,0,1,139.34,218.239Z" transform="translate(-97.157 -172.018)" fill="#ffb020"/>
    <g id="Group_1783" data-name="Group 1783" transform="translate(32.323 45.183)">
      <path id="Path_3583" data-name="Path 3583" d="M148.976,245.337a6.8,6.8,0,0,1-10.632,4.491,8.585,8.585,0,0,1,10.632-4.491Z" transform="translate(-138.344 -239.927)" fill="#a369f7"/>
      <path id="Path_3584" data-name="Path 3584" d="M142.014,226.216a4.345,4.345,0,0,0,1.183,2.637,1.366,1.366,0,0,0,2.375-1.054,4.316,4.316,0,0,0-1.332-2.778A1.5,1.5,0,0,0,142.014,226.216Z" transform="translate(-141.111 -224.792)" fill="#a369f7"/>
    </g>
  </g>
</svg>
