<svg xmlns="http://www.w3.org/2000/svg" width="22.01" height="22.012" viewBox="0 0 22.01 22.012">
  <g id="up-arrow" transform="translate(0)">
    <path id="Path_3239" data-name="Path 3239" d="M16.71,26.71a1,1,0,0,1-1.42,0l-10-10a1,1,0,0,1,1.42-1.42L16,24.59l9.29-9.3a1,1,0,1,1,1.42,1.42Z" transform="translate(-4.996 -14.994)"/>
    <path id="Path_3240" data-name="Path 3240" d="M6.71,5.29,16,14.59l9.29-9.3a1,1,0,1,1,1.42,1.42l-10,10a1,1,0,0,1-1.42,0l-10-10A1,1,0,0,1,6.71,5.29Z" transform="translate(-4.996 5.006)"/>
  </g>
</svg>
